<svg width="32" height="32" viewBox="0 0 32 32" fill="none" xmlns="http://www.w3.org/2000/svg">
<rect width="32" height="32" rx="16" fill="#00CC5F" fill-opacity="0.15"/>
<path d="M21.3333 17.332C21.272 17.3753 20 18.7207 20 19.6653C20 20.6613 20.6327 21.2973 21.3333 21.332C21.9373 21.3613 22.6667 20.738 22.6667 19.6653C22.6667 18.6653 21.3947 17.3753 21.3333 17.332V17.332ZM10.276 16.6653C10.276 17.0213 10.4147 17.356 10.6667 17.608L14.3907 21.332C14.6427 21.584 14.9773 21.7227 15.3333 21.7227C15.6893 21.7227 16.024 21.584 16.276 21.332L20.9427 16.6653L20.4713 16.194L15.3333 11.056L13.8047 9.52734L12.862 10.47L14.3907 11.9987L10.6667 15.7227C10.4147 15.9747 10.276 16.3093 10.276 16.6653V16.6653ZM15.3333 12.9413L19.0573 16.6653L15.3333 20.3893H15.334L15.3333 21.056V20.3893L11.6093 16.6653L15.3333 12.9413Z" fill="#00CC5F"/>
</svg>
