<svg width="32" height="32" viewBox="0 0 32 32" fill="none" xmlns="http://www.w3.org/2000/svg">
<rect width="32" height="32" rx="16" fill="#00CC5F" fill-opacity="0.15"/>
<path d="M13.5 10C12.614 9.99841 11.7604 10.3329 11.1114 10.9359C10.4623 11.5389 10.0661 12.3657 10.0027 13.2494C9.93924 14.1331 10.2133 15.0079 10.7696 15.6975C11.3258 16.3871 12.1229 16.84 13 16.965V17.973C12.158 17.8787 11.3597 17.5485 10.697 17.0206C10.0343 16.4926 9.53407 15.7883 9.25397 14.9886C8.97387 14.1889 8.92522 13.3264 9.11363 12.5003C9.30204 11.6742 9.71985 10.9181 10.319 10.319C10.9181 9.71986 11.6742 9.30205 12.5003 9.11364C13.3264 8.92523 14.1889 8.97388 14.9886 9.25398C15.7883 9.53408 16.4926 10.0343 17.0206 10.697C17.5485 11.3597 17.8787 12.158 17.973 13H16.965C16.8447 12.1669 16.4282 11.405 15.7918 10.854C15.1554 10.303 14.3418 9.99979 13.5 10V10ZM16.5 14C15.837 14 15.2011 14.2634 14.7322 14.7322C14.2634 15.2011 14 15.837 14 16.5V20.5C14 21.163 14.2634 21.7989 14.7322 22.2678C15.2011 22.7366 15.837 23 16.5 23H20.5C21.163 23 21.7989 22.7366 22.2678 22.2678C22.7366 21.7989 23 21.163 23 20.5V16.5C23 15.837 22.7366 15.2011 22.2678 14.7322C21.7989 14.2634 21.163 14 20.5 14H16.5ZM15 16.5C15 16.1022 15.158 15.7206 15.4393 15.4393C15.7206 15.158 16.1022 15 16.5 15H20.5C20.8978 15 21.2794 15.158 21.5607 15.4393C21.842 15.7206 22 16.1022 22 16.5V20.5C22 20.8978 21.842 21.2794 21.5607 21.5607C21.2794 21.842 20.8978 22 20.5 22H16.5C16.1022 22 15.7206 21.842 15.4393 21.5607C15.158 21.2794 15 20.8978 15 20.5V16.5Z" fill="#00CC5F"/>
</svg>
