<svg width="32" height="32" viewBox="0 0 32 32" fill="none" xmlns="http://www.w3.org/2000/svg">
<rect width="32" height="32" rx="16" fill="#00CC5F" fill-opacity="0.15"/>
<path d="M22.415 19.585L19.5 16.665V14.5C19.5004 14.4342 19.4878 14.369 19.4629 14.308C19.438 14.2471 19.4013 14.1917 19.355 14.145L14.355 9.145C14.3085 9.09814 14.2532 9.06094 14.1923 9.03555C14.1314 9.01017 14.066 8.9971 14 8.9971C13.934 8.9971 13.8686 9.01017 13.8077 9.03555C13.7468 9.06094 13.6915 9.09814 13.645 9.145L9.145 13.645C9.09814 13.6915 9.06094 13.7468 9.03555 13.8077C9.01017 13.8686 8.9971 13.934 8.9971 14C8.9971 14.066 9.01017 14.1314 9.03555 14.1923C9.06094 14.2532 9.09814 14.3085 9.145 14.355L14.145 19.355C14.1917 19.4013 14.2471 19.438 14.308 19.4629C14.369 19.4878 14.4342 19.5004 14.5 19.5H16.67L19.585 22.42C19.9603 22.7953 20.4693 23.0061 21 23.0061C21.5307 23.0061 22.0397 22.7953 22.415 22.42C22.7903 22.0447 23.0011 21.5357 23.0011 21.005C23.0011 20.4743 22.7903 19.9653 22.415 19.59V19.585ZM11 13.205L12.145 14.355L12.855 13.645L11.705 12.5L12.5 11.705L14.645 13.855L15.355 13.145L13.205 11L14 10.205L17.295 13.5L13.5 17.295L10.205 14L11 13.205ZM21.705 21.705C21.5176 21.8913 21.2642 21.9958 21 21.9958C20.7358 21.9958 20.4824 21.8913 20.295 21.705L17.23 18.645C17.1235 18.5717 17.0024 18.5223 16.875 18.5H14.705L14.205 18L18 14.205L18.5 14.705V16.875C18.5006 17.0062 18.5526 17.1319 18.645 17.225L21.705 20.295C21.8913 20.4824 21.9958 20.7358 21.9958 21C21.9958 21.2642 21.8913 21.5176 21.705 21.705V21.705Z" fill="#00CC5F"/>
</svg>
