<svg width="32" height="32" viewBox="0 0 32 32" fill="none" xmlns="http://www.w3.org/2000/svg">
<rect width="32" height="32" rx="16" fill="#00CC5F" fill-opacity="0.15"/>
<path d="M12.5 11C12.1022 11 11.7206 11.158 11.4393 11.4393C11.158 11.7206 11 12.1022 11 12.5V13.5C11 13.6326 10.9473 13.7598 10.8536 13.8536C10.7598 13.9473 10.6326 14 10.5 14C10.3674 14 10.2402 13.9473 10.1464 13.8536C10.0527 13.7598 10 13.6326 10 13.5V12.5C10 11.837 10.2634 11.2011 10.7322 10.7322C11.2011 10.2634 11.837 10 12.5 10H13.5C13.6326 10 13.7598 10.0527 13.8536 10.1464C13.9473 10.2402 14 10.3674 14 10.5C14 10.6326 13.9473 10.7598 13.8536 10.8536C13.7598 10.9473 13.6326 11 13.5 11H12.5ZM15.5 14C15.1022 14 14.7206 14.158 14.4393 14.4393C14.158 14.7206 14 15.1022 14 15.5V16.5C14 16.8978 14.158 17.2794 14.4393 17.5607C14.7206 17.842 15.1022 18 15.5 18H16.5C16.8978 18 17.2794 17.842 17.5607 17.5607C17.842 17.2794 18 16.8978 18 16.5V15.5C18 15.1022 17.842 14.7206 17.5607 14.4393C17.2794 14.158 16.8978 14 16.5 14H15.5ZM19.5 11C19.8978 11 20.2794 11.158 20.5607 11.4393C20.842 11.7206 21 12.1022 21 12.5V13.5C21 13.6326 21.0527 13.7598 21.1464 13.8536C21.2402 13.9473 21.3674 14 21.5 14C21.6326 14 21.7598 13.9473 21.8536 13.8536C21.9473 13.7598 22 13.6326 22 13.5V12.5C22 11.837 21.7366 11.2011 21.2678 10.7322C20.7989 10.2634 20.163 10 19.5 10H18.5C18.3674 10 18.2402 10.0527 18.1464 10.1464C18.0527 10.2402 18 10.3674 18 10.5C18 10.6326 18.0527 10.7598 18.1464 10.8536C18.2402 10.9473 18.3674 11 18.5 11H19.5ZM19.5 21C19.8978 21 20.2794 20.842 20.5607 20.5607C20.842 20.2794 21 19.8978 21 19.5V18.5C21 18.3674 21.0527 18.2402 21.1464 18.1464C21.2402 18.0527 21.3674 18 21.5 18C21.6326 18 21.7598 18.0527 21.8536 18.1464C21.9473 18.2402 22 18.3674 22 18.5V19.5C22 20.163 21.7366 20.7989 21.2678 21.2678C20.7989 21.7366 20.163 22 19.5 22H18.5C18.3674 22 18.2402 21.9473 18.1464 21.8536C18.0527 21.7598 18 21.6326 18 21.5C18 21.3674 18.0527 21.2402 18.1464 21.1464C18.2402 21.0527 18.3674 21 18.5 21H19.5ZM12.5 21C12.1022 21 11.7206 20.842 11.4393 20.5607C11.158 20.2794 11 19.8978 11 19.5V18.25C11 18.1174 10.9473 17.9902 10.8536 17.8964C10.7598 17.8027 10.6326 17.75 10.5 17.75C10.3674 17.75 10.2402 17.8027 10.1464 17.8964C10.0527 17.9902 10 18.1174 10 18.25V19.5C10 20.163 10.2634 20.7989 10.7322 21.2678C11.2011 21.7366 11.837 22 12.5 22H13.75C13.8826 22 14.0098 21.9473 14.1036 21.8536C14.1973 21.7598 14.25 21.6326 14.25 21.5C14.25 21.3674 14.1973 21.2402 14.1036 21.1464C14.0098 21.0527 13.8826 21 13.75 21H12.5Z" fill="#00CC5F"/>
</svg>
