<svg width="32" height="32" viewBox="0 0 32 32" fill="none" xmlns="http://www.w3.org/2000/svg">
<rect width="32" height="32" rx="16" fill="#00CC5F" fill-opacity="0.15"/>
<path d="M21.5781 14.6563C21.5243 14.4895 21.4254 14.3407 21.2923 14.2266C21.1592 14.1125 20.9972 14.0374 20.824 14.0097L18.1074 13.5682L16.8481 11.121C16.7679 10.9652 16.6463 10.8345 16.4967 10.7432C16.3471 10.652 16.1752 10.6037 16 10.6037C15.8248 10.6037 15.6529 10.652 15.5033 10.7432C15.3537 10.8345 15.2321 10.9652 15.1519 11.121L13.8926 13.5682L11.176 14.0097C11.003 14.0378 10.8412 14.113 10.7082 14.2271C10.5752 14.3412 10.4762 14.4897 10.422 14.6564C10.3679 14.823 10.3607 15.0014 10.4012 15.1719C10.4418 15.3423 10.5285 15.4984 10.6518 15.6228L12.5901 17.5767L12.1706 20.2968C12.1437 20.47 12.1651 20.6473 12.2324 20.8092C12.2997 20.9711 12.4104 21.1113 12.5522 21.2143C12.6941 21.3174 12.8616 21.3793 13.0364 21.3933C13.2111 21.4073 13.3864 21.3729 13.5428 21.2937L16 20.0541L18.4573 21.2937C18.6137 21.3727 18.7889 21.4071 18.9636 21.393C19.1383 21.3789 19.3058 21.3169 19.4475 21.2139C19.5893 21.1109 19.7 20.9708 19.7674 20.809C19.8348 20.6472 19.8562 20.47 19.8295 20.2968L19.4099 17.5767L21.3482 15.6228C21.472 15.4986 21.559 15.3426 21.5995 15.172C21.6401 15.0014 21.6327 14.823 21.5781 14.6563V14.6563ZM20.8157 15.0946L18.6109 17.3172L19.0882 20.4112C19.0941 20.4482 19.0897 20.4862 19.0753 20.5209C19.061 20.5555 19.0373 20.5856 19.007 20.6076C18.9766 20.6297 18.9408 20.6429 18.9033 20.6458C18.8659 20.6487 18.8285 20.6412 18.795 20.6242L16 19.2141L13.2049 20.6242C13.1715 20.6413 13.134 20.6488 13.0966 20.6459C13.0592 20.6429 13.0233 20.6297 12.993 20.6077C12.9626 20.5856 12.939 20.5556 12.9246 20.5209C12.9103 20.4862 12.9058 20.4483 12.9118 20.4112L13.3891 17.3172L11.1843 15.0946C11.158 15.068 11.1395 15.0347 11.1308 14.9982C11.1222 14.9618 11.1237 14.9237 11.1353 14.8881C11.1469 14.8526 11.168 14.8208 11.1964 14.7964C11.2248 14.7721 11.2594 14.756 11.2963 14.7499L14.3863 14.2478L15.8188 11.4642C15.8359 11.4309 15.8619 11.4029 15.8939 11.3834C15.9258 11.3639 15.9626 11.3536 16 11.3536C16.0374 11.3536 16.0742 11.3639 16.1061 11.3834C16.1381 11.4029 16.1641 11.4309 16.1812 11.4642L17.6137 14.2478L20.7037 14.7499C20.7406 14.756 20.7752 14.7721 20.8036 14.7964C20.832 14.8208 20.8531 14.8526 20.8647 14.8881C20.8763 14.9237 20.8778 14.9618 20.8692 14.9982C20.8605 15.0347 20.842 15.068 20.8157 15.0946L20.8157 15.0946Z" fill="#00CC5F"/>
</svg>
