<svg width="341" height="46" viewBox="0 0 341 46" fill="none" xmlns="http://www.w3.org/2000/svg">
<path d="M30.3865 0.93396C20.1785 0.93396 13.7105 8.17196 11.2245 16.378L10.8945 17.478H3.73352C3.00418 17.478 2.3047 17.7677 1.78898 18.2834C1.27325 18.7991 0.983521 19.4986 0.983521 20.228C0.983521 23.9955 2.02852 27.532 3.85452 30.1995C4.49802 31.1345 5.26252 31.998 6.13702 32.7185L4.49252 36.706C4.11673 37.62 3.97186 38.6125 4.0707 39.5958C4.16954 40.5791 4.50906 41.5229 5.05925 42.3438C5.60943 43.1647 6.35336 43.8375 7.22528 44.3027C8.0972 44.7679 9.07027 45.0111 10.0585 45.011H15.96C18.292 45.011 20.415 43.669 21.405 41.557L23.077 38.0095C28.0905 38.6569 33.1665 38.6569 38.18 38.0095L39.8465 41.557C40.8365 43.669 42.965 45.0165 45.2915 45.0165H51.138C52.1281 45.0187 53.1035 44.7764 53.9774 44.311C54.8514 43.8456 55.5968 43.1715 56.1475 42.3487C56.6983 41.5259 57.0372 40.5797 57.1343 39.5944C57.2314 38.609 57.0836 37.6149 56.704 36.7005L55.593 34.0055H60.9005C64.294 34.0055 67.0165 31.1235 67.0165 27.7795V24.3695C67.0165 19.1995 62.9795 14.7445 57.7215 14.7445H49.6695C46.7325 7.12696 39.808 0.939461 30.3865 0.939461V0.93396ZM53.7285 28.5055L51.347 20.25H57.7215C59.685 20.25 61.5165 21.977 61.5165 24.375V27.785C61.5137 27.9854 61.4328 28.1768 61.291 28.3185C61.137 28.4725 60.9885 28.511 60.9005 28.511H53.7285V28.5055ZM50.126 35.1825L51.6165 38.796C51.6491 38.8746 51.6618 38.96 51.6534 39.0447C51.6451 39.1294 51.6159 39.2108 51.5686 39.2815C51.5213 39.3522 51.4572 39.4102 51.3821 39.4502C51.307 39.4902 51.2231 39.5111 51.138 39.511H45.297C45.198 39.5119 45.1008 39.4845 45.017 39.4318C44.9331 39.3792 44.8662 39.3036 44.824 39.214L43.7845 37.0085C45.9185 36.519 48.036 35.9085 50.126 35.1825V35.1825ZM17.4725 37.0085L16.4275 39.214C16.3866 39.3037 16.3208 39.3799 16.238 39.4335C16.1551 39.4871 16.0587 39.5159 15.96 39.5165H10.0585C9.97341 39.5166 9.88957 39.4957 9.81446 39.4557C9.73935 39.4157 9.67528 39.3577 9.62794 39.287C9.5806 39.2163 9.55146 39.1349 9.5431 39.0502C9.53474 38.9655 9.54742 38.8801 9.58002 38.8015L11.076 35.1715C13.1825 35.9085 15.3165 36.519 17.4725 37.014V37.0085ZM9.22802 22.978L8.11702 26.663C7.44959 25.5231 6.98439 24.2764 6.74202 22.978H9.22802ZM16.488 17.973C18.5065 11.3125 23.3245 6.43396 30.3865 6.43396C37.5585 6.43396 42.9815 11.439 44.9615 17.9565L48.4265 29.952C36.9172 34.002 24.3711 34.0079 12.858 29.9685L16.488 17.973V17.973Z" fill="#00CC5F"/>
<path d="M102.214 12.94V17.05H96.6341V34H91.5041V17.05H85.9241V12.94H102.214ZM111.829 12.94V25.54C111.829 26.8 112.139 27.77 112.759 28.45C113.379 29.13 114.289 29.47 115.489 29.47C116.689 29.47 117.609 29.13 118.249 28.45C118.889 27.77 119.209 26.8 119.209 25.54V12.94H124.339V25.51C124.339 27.39 123.939 28.98 123.139 30.28C122.339 31.58 121.259 32.56 119.899 33.22C118.559 33.88 117.059 34.21 115.399 34.21C113.739 34.21 112.249 33.89 110.929 33.25C109.629 32.59 108.599 31.61 107.839 30.31C107.079 28.99 106.699 27.39 106.699 25.51V12.94H111.829ZM140.681 34L136.301 26.05H135.071V34H129.941V12.94H138.551C140.211 12.94 141.621 13.23 142.781 13.81C143.961 14.39 144.841 15.19 145.421 16.21C146.001 17.21 146.291 18.33 146.291 19.57C146.291 20.97 145.891 22.22 145.091 23.32C144.311 24.42 143.151 25.2 141.611 25.66L146.471 34H140.681ZM135.071 22.42H138.251C139.191 22.42 139.891 22.19 140.351 21.73C140.831 21.27 141.071 20.62 141.071 19.78C141.071 18.98 140.831 18.35 140.351 17.89C139.891 17.43 139.191 17.2 138.251 17.2H135.071V22.42ZM166.661 12.94V17.05H161.081V34H155.951V17.05H150.371V12.94H166.661ZM176.366 30.04H183.086V34H171.236V12.94H176.366V30.04ZM192.663 17.05V21.31H199.533V25.27H192.663V29.89H200.433V34H187.533V12.94H200.433V17.05H192.663ZM221.741 34.21C220.201 34.21 218.821 33.96 217.601 33.46C216.381 32.96 215.401 32.22 214.661 31.24C213.941 30.26 213.561 29.08 213.521 27.7H218.981C219.061 28.48 219.331 29.08 219.791 29.5C220.251 29.9 220.851 30.1 221.591 30.1C222.351 30.1 222.951 29.93 223.391 29.59C223.831 29.23 224.051 28.74 224.051 28.12C224.051 27.6 223.871 27.17 223.511 26.83C223.171 26.49 222.741 26.21 222.221 25.99C221.721 25.77 221.001 25.52 220.061 25.24C218.701 24.82 217.591 24.4 216.731 23.98C215.871 23.56 215.131 22.94 214.511 22.12C213.891 21.3 213.581 20.23 213.581 18.91C213.581 16.95 214.291 15.42 215.711 14.32C217.131 13.2 218.981 12.64 221.261 12.64C223.581 12.64 225.451 13.2 226.871 14.32C228.291 15.42 229.051 16.96 229.151 18.94H223.601C223.561 18.26 223.311 17.73 222.851 17.35C222.391 16.95 221.801 16.75 221.081 16.75C220.461 16.75 219.961 16.92 219.581 17.26C219.201 17.58 219.011 18.05 219.011 18.67C219.011 19.35 219.331 19.88 219.971 20.26C220.611 20.64 221.611 21.05 222.971 21.49C224.331 21.95 225.431 22.39 226.271 22.81C227.131 23.23 227.871 23.84 228.491 24.64C229.111 25.44 229.421 26.47 229.421 27.73C229.421 28.93 229.111 30.02 228.491 31C227.891 31.98 227.011 32.76 225.851 33.34C224.691 33.92 223.321 34.21 221.741 34.21ZM252.638 12.94L245.348 27.04V34H240.218V27.04L232.928 12.94H238.748L242.828 21.76L246.878 12.94H252.638ZM264.325 34.21C262.785 34.21 261.405 33.96 260.185 33.46C258.965 32.96 257.985 32.22 257.245 31.24C256.525 30.26 256.145 29.08 256.105 27.7H261.565C261.645 28.48 261.915 29.08 262.375 29.5C262.835 29.9 263.435 30.1 264.175 30.1C264.935 30.1 265.535 29.93 265.975 29.59C266.415 29.23 266.635 28.74 266.635 28.12C266.635 27.6 266.455 27.17 266.095 26.83C265.755 26.49 265.325 26.21 264.805 25.99C264.305 25.77 263.585 25.52 262.645 25.24C261.285 24.82 260.175 24.4 259.315 23.98C258.455 23.56 257.715 22.94 257.095 22.12C256.475 21.3 256.165 20.23 256.165 18.91C256.165 16.95 256.875 15.42 258.295 14.32C259.715 13.2 261.565 12.64 263.845 12.64C266.165 12.64 268.035 13.2 269.455 14.32C270.875 15.42 271.635 16.96 271.735 18.94H266.185C266.145 18.26 265.895 17.73 265.435 17.35C264.975 16.95 264.385 16.75 263.665 16.75C263.045 16.75 262.545 16.92 262.165 17.26C261.785 17.58 261.595 18.05 261.595 18.67C261.595 19.35 261.915 19.88 262.555 20.26C263.195 20.64 264.195 21.05 265.555 21.49C266.915 21.95 268.015 22.39 268.855 22.81C269.715 23.23 270.455 23.84 271.075 24.64C271.695 25.44 272.005 26.47 272.005 27.73C272.005 28.93 271.695 30.02 271.075 31C270.475 31.98 269.595 32.76 268.435 33.34C267.275 33.92 265.905 34.21 264.325 34.21ZM292.312 12.94V17.05H286.732V34H281.602V17.05H276.022V12.94H292.312ZM302.016 17.05V21.31H308.886V25.27H302.016V29.89H309.786V34H296.886V12.94H309.786V17.05H302.016ZM338.967 12.94V34H333.837V21.37L329.127 34H324.987L320.247 21.34V34H315.117V12.94H321.177L327.087 27.52L332.937 12.94H338.967Z" fill="#00CC5F"/>
</svg>
