<svg width="88" height="88" viewBox="0 0 88 88" fill="none" xmlns="http://www.w3.org/2000/svg">
<path d="M40.3865 21.934C30.1785 21.934 23.7105 29.172 21.2245 37.378L20.8945 38.478H13.7335C13.0042 38.478 12.3047 38.7677 11.789 39.2834C11.2733 39.7991 10.9835 40.4986 10.9835 41.228C10.9835 44.9955 12.0285 48.532 13.8545 51.1995C14.498 52.1345 15.2625 52.998 16.137 53.7185L14.4925 57.706C14.1167 58.62 13.9719 59.6125 14.0707 60.5958C14.1695 61.5791 14.5091 62.5229 15.0592 63.3438C15.6094 64.1647 16.3534 64.8375 17.2253 65.3027C18.0972 65.7679 19.0703 66.0111 20.0585 66.011H25.96C28.292 66.011 30.415 64.669 31.405 62.557L33.077 59.0095C38.0905 59.6569 43.1665 59.6569 48.18 59.0095L49.8465 62.557C50.8365 64.669 52.965 66.0165 55.2915 66.0165H61.138C62.1281 66.0187 63.1035 65.7764 63.9774 65.311C64.8514 64.8456 65.5968 64.1715 66.1475 63.3487C66.6983 62.5259 67.0372 61.5797 67.1343 60.5944C67.2314 59.609 67.0836 58.6149 66.704 57.7005L65.593 55.0055H70.9005C74.294 55.0055 77.0165 52.1235 77.0165 48.7795V45.3695C77.0165 40.1995 72.9795 35.7445 67.7215 35.7445H59.6695C56.7325 28.127 49.808 21.9395 40.3865 21.9395V21.934ZM63.7285 49.5055L61.347 41.25H67.7215C69.685 41.25 71.5165 42.977 71.5165 45.375V48.785C71.5137 48.9854 71.4328 49.1768 71.291 49.3185C71.137 49.4725 70.9885 49.511 70.9005 49.511H63.7285V49.5055ZM60.126 56.1825L61.6165 59.796C61.6491 59.8746 61.6618 59.96 61.6534 60.0447C61.6451 60.1294 61.6159 60.2108 61.5686 60.2815C61.5213 60.3522 61.4572 60.4102 61.3821 60.4502C61.307 60.4902 61.2231 60.5111 61.138 60.511H55.297C55.198 60.5119 55.1008 60.4845 55.017 60.4318C54.9331 60.3792 54.8662 60.3036 54.824 60.214L53.7845 58.0085C55.9185 57.519 58.036 56.9085 60.126 56.1825V56.1825ZM27.4725 58.0085L26.4275 60.214C26.3866 60.3037 26.3208 60.3799 26.238 60.4335C26.1551 60.4871 26.0587 60.5159 25.96 60.5165H20.0585C19.9734 60.5166 19.8896 60.4957 19.8145 60.4557C19.7393 60.4157 19.6753 60.3577 19.6279 60.287C19.5806 60.2163 19.5515 60.1349 19.5431 60.0502C19.5347 59.9655 19.5474 59.8801 19.58 59.8015L21.076 56.1715C23.1825 56.9085 25.3165 57.519 27.4725 58.014V58.0085ZM19.228 43.978L18.117 47.663C17.4496 46.5231 16.9844 45.2764 16.742 43.978H19.228ZM26.488 38.973C28.5065 32.3125 33.3245 27.434 40.3865 27.434C47.5585 27.434 52.9815 32.439 54.9615 38.9565L58.4265 50.952C46.9172 55.002 34.3711 55.0079 22.858 50.9685L26.488 38.973V38.973Z" fill="#00CC5F"/>
</svg>
